<?xml version="1.0" encoding="utf-8"?>
<!-- Generator: Adobe Illustrator 23.0.1, SVG Export Plug-In . SVG Version: 6.00 Build 0)  -->
<svg version="1.1" id="Ebene_1" xmlns="http://www.w3.org/2000/svg" xmlns:xlink="http://www.w3.org/1999/xlink" x="0px" y="0px"
	 viewBox="0 0 75.84 75.84" style="enable-background:new 0 0 75.84 75.84;" xml:space="preserve">
<style type="text/css">
	.st0{fill:#174693;}
</style>
<g>
	<g>
		<path class="st0" d="M37.92,0C17.01,0,0,17.01,0,37.92s17.01,37.92,37.92,37.92s37.92-17.01,37.92-37.92S58.83,0,37.92,0z
			 M37.92,5.42c17.99,0,32.51,14.52,32.51,32.51s-14.52,32.5-32.51,32.5S5.42,55.91,5.42,37.92S19.94,5.42,37.92,5.42z"/>
		<g>
			<path class="st0" d="M19.03,35.24c-0.01,0-0.02,0-0.04,0c-1.49,0-2.7,1.21-2.7,2.7s1.21,2.7,2.7,2.7c0.01,0,0.03,0,0.04,0h37.75
				c0.01,0,0.02,0,0.04,0c1.49,0,2.7-1.21,2.7-2.7s-1.21-2.7-2.7-2.7c-0.01,0-0.03,0-0.04,0H19.03z"/>
			<path class="st0" d="M40.61,19.06c0-0.01,0-0.02,0-0.04c0-1.49-1.21-2.7-2.7-2.7s-2.7,1.21-2.7,2.7c0,0.01,0,0.03,0,0.04l0,0
				v37.75c0,0.01,0,0.02,0,0.04c0,1.49,1.21,2.7,2.7,2.7s2.7-1.21,2.7-2.7c0-0.01,0-0.03,0-0.04l0,0V19.06z"/>
		</g>
	</g>
</g>
</svg>
