<?xml version="1.0" encoding="utf-8"?>
<!-- Generator: Adobe Illustrator 23.0.1, SVG Export Plug-In . SVG Version: 6.00 Build 0)  -->
<svg version="1.1" id="Ebene_1" xmlns="http://www.w3.org/2000/svg" xmlns:xlink="http://www.w3.org/1999/xlink" x="0px" y="0px"
	 viewBox="0 0 659.59 207.17" style="enable-background:new 0 0 659.59 207.17;" xml:space="preserve">
<style type="text/css">
	.st0{fill:#FF0000;}
	.st1{fill:#FFFFFF;}
	.st2{fill:none;stroke:#17469D;stroke-width:6;stroke-miterlimit:10;}
	.st3{fill:#17469D;}
	.st4{font-family:'MyriadPro-Regular';}
	.st5{font-size:147.5432px;}
	.st6{font-size:128.1234px;}
</style>
<path class="st0" d="M279.93,1.77c-2.29-2.29-5.08-2.63-9.45,0.61c-16.5,12.23-26.41,29.19-38.59,41.66
	c-3.76,3.85-7.85,4.68-11.95,4.71c-6.23,0.03-10.38,2.49-16.99,10.03c1.55,0.95,3.06,1.97,4.51,3.05l3.46-3.46
	c0.51-0.82,1.59-1.06,2.4-0.55s1.06,1.59,0.55,2.4c-0.14,0.22-0.33,0.41-0.55,0.55l-3.18,3.18c0.94,0.79,1.86,1.61,2.75,2.46
	l3.03-3.03c0.67-0.82,1.87-0.96,2.71-0.31c0.65,0.84,0.51,2.04-0.31,2.71l-3.03,3.03c0.84,0.89,1.67,1.81,2.46,2.75l3.18-3.18
	c0.67-0.82,1.87-0.96,2.71-0.31c0.65,0.84,0.51,2.04-0.31,2.71l-3.46,3.46c1.08,1.46,2.1,2.96,3.05,4.51
	c7.54-6.61,9.99-10.76,10.03-16.99c0.02-4.1,0.85-8.19,4.71-11.95c12.46-12.18,29.42-22.09,41.66-38.59
	C282.56,6.85,282.22,4.06,279.93,1.77z"/>
<path class="st0" d="M118.74,110.99c0,2.4,1.9,7.35,4.28,7.44l10.92,50.27c0.45,2.05,2.26,3.51,4.35,3.51h69.74
	c2.09,0,3.9-1.45,4.35-3.5l11.03-50.28c2.38-0.09,4.29-5.04,4.29-7.44L118.74,110.99z M204.7,165h-63l-10-47h83L204.7,165z"/>
<path class="st2" d="M155.66,149.8c5.28,3.6,11.66,5.7,18.54,5.7c10.93,0,20.61-5.32,26.62-13.5"/>
<g>
	<path class="st3" d="M132.06,66.3c10.28-9.82,24.09-15.96,39.3-16.3v6.05c-13.54,0.36-25.84,5.81-35.03,14.53L132.06,66.3z"/>
	<path class="st3" d="M174.11,56.05V50c15.22,0.34,29.02,6.48,39.3,16.3l-4.28,4.28C199.95,61.86,187.65,56.4,174.11,56.05z"/>
	<path class="st3" d="M211.07,72.51l4.28-4.28c9.82,10.28,15.96,24.09,16.3,39.3h-6.05C225.24,93.99,219.79,81.7,211.07,72.51z"/>
	<path class="st3" d="M108.96,103.17h-6.05c0.34-15.22,6.48-29.02,16.3-39.3l4.28,4.28C114.78,77.33,109.32,89.63,108.96,103.17z"/>
	<path class="st3" d="M158.51,103.17h-46.8c0.34-12.79,5.5-24.4,13.72-33.08L158.51,103.17z M124.44,88.64
		c-1.06,2.58,0.16,5.55,2.74,6.62c0.63,0.25,1.27,0.38,1.95,0.38c2.06,0,3.89-1.23,4.67-3.13c1.07-2.59-0.16-5.55-2.74-6.62
		c-0.62-0.26-1.27-0.38-1.93-0.38C127.07,85.52,125.24,86.74,124.44,88.64z"/>
	<path class="st3" d="M138.29,72.51c8.68-8.23,20.29-13.38,33.08-13.72v46.82L138.29,72.51z M157.26,71.11
		c-2.59,1.07-3.81,4.03-2.74,6.61c0.78,1.91,2.62,3.14,4.67,3.14c0.67,0,1.32-0.14,1.93-0.4c1.26-0.51,2.23-1.48,2.74-2.74
		c0.52-1.25,0.52-2.62,0-3.87c-0.78-1.91-2.62-3.13-4.67-3.13C158.52,70.73,157.87,70.85,157.26,71.11z"/>
	<path class="st3" d="M174.11,105.6V58.79c12.79,0.34,24.4,5.5,33.08,13.72L174.11,105.6z M181.61,73.85
		c-1.07,2.58,0.15,5.54,2.74,6.61c0.62,0.26,1.26,0.4,1.93,0.4c2.06,0,3.89-1.23,4.67-3.14c1.07-2.58-0.16-5.54-2.74-6.61
		c-0.62-0.26-1.26-0.38-1.93-0.38C184.22,70.73,182.39,71.95,181.61,73.85z"/>
	<path class="st3" d="M176.04,107.54l33.09-33.08c8.23,8.68,13.38,20.29,13.72,33.08L176.04,107.54L176.04,107.54z M203.5,90.26
		c-2.58,1.07-3.81,4.03-2.74,6.62c0.78,1.89,2.62,3.13,4.67,3.13c0.67,0,1.32-0.14,1.95-0.38c1.25-0.52,2.22-1.49,2.73-2.74
		c0.52-1.26,0.52-2.63,0-3.88c-0.78-1.91-2.62-3.13-4.67-3.13C204.77,89.88,204.12,90,203.5,90.26z"/>
</g>
<text transform="matrix(1 0 0 1 0 170.2881)" class="st3 st4 st5">C</text>
<text transform="matrix(1 0 0 1 249.8613 170.2402)" class="st3 st4 st6">isinners</text>
</svg>
